#Comment line ignore any data following # character 
#Hierarchical Translation and Rotation (.htr) file 
[Header]	
#Header keywords are followed by a single value 
FileType HTR		#Single word string
DataType HTRS		#Translation followed by rotation and scale data
FileVersion 1		#integer
NumSegments 64		#integer
NumFrames 3		#integer
DataFrameRate 30		#integer, data frame rate in this file
EulerRotationOrder ZYX
CalibrationUnits mm
RotationUnits Degrees
GlobalAxisofGravity Y
BoneLengthAxis Y
ScaleFactor 1.00
[SegmentNames&Hierarchy]
#CHILD	PARENT
Pinger_Root GLOBAL
Pelvis Pinger_Root
L_Hip Pelvis
R_Hip Pelvis
Rear_Leg01 Pelvis
Spine1 Pelvis
L_Leg01 L_Hip
L_Leg02 L_Leg01
L_Leg03 L_Leg02
L_Foot L_Leg03
L_Toe1_01 L_Foot
L_Toe2_01 L_Foot
L_Toe3_01 L_Foot
planeAlignerLeft L_Foot
L_Toe1_02 L_Toe1_01
L_Toe1_03 L_Toe1_02
L_Toe2_02 L_Toe2_01
L_Toe2_03 L_Toe2_02
L_Toe3_02 L_Toe3_01
L_Toe3_03 L_Toe3_02
planeLockWeightLeft planeAlignerLeft
R_Leg01 R_Hip
R_Leg02 R_Leg01
R_Leg03 R_Leg02
R_Foot R_Leg03
planeAlignerRight R_Foot
R_Toe1_01 R_Foot
R_Toe2_01 R_Foot
R_Toe3_01 R_Foot
planeLockWeightRight planeAlignerRight
R_Toe1_02 R_Toe1_01
R_Toe1_03 R_Toe1_02
R_Toe2_02 R_Toe2_01
R_Toe2_03 R_Toe2_02
R_Toe3_02 R_Toe3_01
R_Toe3_03 R_Toe3_02
Rear_Leg02 Rear_Leg01
Rear_Leg03 Rear_Leg02
Rear_Leg04 Rear_Leg03
Rear_Foot Rear_Leg04
planeAlignerCenter Rear_Foot
Rear_Toe1_01 Rear_Foot
Rear_Toe2_01 Rear_Foot
Rear_Toe3_01 Rear_Foot
planeLockWeightCenter planeAlignerCenter
Rear_Toe1_02 Rear_Toe1_01
Rear_Toe1_03 Rear_Toe1_02
Rear_Toe2_02 Rear_Toe2_01
Rear_Toe2_03 Rear_Toe2_02
Rear_Toe3_02 Rear_Toe3_01
Rear_Toe3_03 Rear_Toe3_02
Back_Bone Spine1
Head Spine1
Motor_Bone Back_Bone
Ping_Mechanism Back_Bone
BN_LookIK Head
bottomMouth Head
L_Mouth01 Head
L_mouthFront Head
mouthGun Head
R_Mouth01 Head
R_mouthFront Head
TopMouth Head
weapon_bone Head
[BasePosition]
#SegmentName Tx, Ty, Tz, Rx, Ry, Rz, BoneLength
Pinger_Root 0.000000 0.000000 0.000000 -90.000000 0.000000 0.000000 10.000000 
Pelvis 0.000000 0.000000 0.000000 0.000000 0.000000 0.000000 10.000000 
L_Hip 0.000000 0.000000 0.000000 0.000000 0.000000 0.000000 10.000000 
R_Hip 0.000000 0.000000 0.000000 0.000000 0.000000 0.000000 10.000000 
Rear_Leg01 0.000000 0.000000 0.000000 0.000000 0.000000 0.000000 10.000000 
Spine1 0.000000 0.000000 0.000000 0.000000 0.000000 0.000000 10.000000 
L_Leg01 0.000000 0.000000 0.000000 0.000000 0.000000 0.000000 10.000000 
L_Leg02 0.000000 0.000000 0.000000 0.000000 0.000000 0.000000 10.000000 
L_Leg03 0.000000 0.000000 0.000000 0.000000 0.000000 0.000000 10.000000 
L_Foot 0.000000 0.000000 0.000000 0.000000 0.000000 0.000000 10.000000 
L_Toe1_01 0.000000 0.000000 0.000000 0.000000 0.000000 0.000000 10.000000 
L_Toe2_01 0.000000 0.000000 0.000000 0.000000 0.000000 0.000000 10.000000 
L_Toe3_01 0.000000 0.000000 0.000000 0.000000 0.000000 0.000000 10.000000 
planeAlignerLeft 0.000000 0.000000 0.000000 0.000000 0.000000 0.000000 10.000000 
L_Toe1_02 0.000000 0.000000 0.000000 0.000000 0.000000 0.000000 10.000000 
L_Toe1_03 0.000000 0.000000 0.000000 0.000000 0.000000 0.000000 10.000000 
L_Toe2_02 0.000000 0.000000 0.000000 0.000000 0.000000 0.000000 10.000000 
L_Toe2_03 0.000000 0.000000 0.000000 0.000000 0.000000 0.000000 10.000000 
L_Toe3_02 0.000000 0.000000 0.000000 0.000000 0.000000 0.000000 10.000000 
L_Toe3_03 0.000000 0.000000 0.000000 0.000000 0.000000 0.000000 10.000000 
planeLockWeightLeft 0.000000 0.000000 0.000000 0.000000 0.000000 0.000000 10.000000 
R_Leg01 0.000000 0.000000 0.000000 0.000000 0.000000 0.000000 10.000000 
R_Leg02 0.000000 0.000000 0.000000 0.000000 0.000000 0.000000 10.000000 
R_Leg03 0.000000 0.000000 0.000000 0.000000 0.000000 0.000000 10.000000 
R_Foot 0.000000 0.000000 0.000000 0.000000 0.000000 0.000000 10.000000 
planeAlignerRight 0.000000 0.000000 0.000000 0.000000 0.000000 0.000000 10.000000 
R_Toe1_01 0.000000 0.000000 0.000000 0.000000 0.000000 0.000000 10.000000 
R_Toe2_01 0.000000 0.000000 0.000000 0.000000 0.000000 0.000000 10.000000 
R_Toe3_01 0.000000 0.000000 0.000000 0.000000 0.000000 0.000000 10.000000 
planeLockWeightRight 0.000000 0.000000 0.000000 0.000000 0.000000 0.000000 10.000000 
R_Toe1_02 0.000000 0.000000 0.000000 0.000000 0.000000 0.000000 10.000000 
R_Toe1_03 0.000000 0.000000 0.000000 0.000000 0.000000 0.000000 10.000000 
R_Toe2_02 0.000000 0.000000 0.000000 0.000000 0.000000 0.000000 10.000000 
R_Toe2_03 0.000000 0.000000 0.000000 0.000000 0.000000 0.000000 10.000000 
R_Toe3_02 0.000000 0.000000 0.000000 0.000000 0.000000 0.000000 10.000000 
R_Toe3_03 0.000000 0.000000 0.000000 0.000000 0.000000 0.000000 10.000000 
Rear_Leg02 0.000000 0.000000 0.000000 0.000000 0.000000 0.000000 10.000000 
Rear_Leg03 0.000000 0.000000 0.000000 0.000000 0.000000 0.000000 10.000000 
Rear_Leg04 0.000000 0.000000 0.000000 0.000000 0.000000 0.000000 10.000000 
Rear_Foot 0.000000 0.000000 0.000000 0.000000 0.000000 0.000000 10.000000 
planeAlignerCenter 0.000000 0.000000 0.000000 0.000000 0.000000 0.000000 10.000000 
Rear_Toe1_01 0.000000 0.000000 0.000000 0.000000 0.000000 0.000000 10.000000 
Rear_Toe2_01 0.000000 0.000000 0.000000 0.000000 0.000000 0.000000 10.000000 
Rear_Toe3_01 0.000000 0.000000 0.000000 0.000000 0.000000 0.000000 10.000000 
planeLockWeightCenter 0.000000 0.000000 0.000000 0.000000 0.000000 0.000000 10.000000 
Rear_Toe1_02 0.000000 0.000000 0.000000 0.000000 0.000000 0.000000 10.000000 
Rear_Toe1_03 0.000000 0.000000 0.000000 0.000000 0.000000 0.000000 10.000000 
Rear_Toe2_02 0.000000 0.000000 0.000000 0.000000 0.000000 0.000000 10.000000 
Rear_Toe2_03 0.000000 0.000000 0.000000 0.000000 0.000000 0.000000 10.000000 
Rear_Toe3_02 0.000000 0.000000 0.000000 0.000000 0.000000 0.000000 10.000000 
Rear_Toe3_03 0.000000 0.000000 0.000000 0.000000 0.000000 0.000000 10.000000 
Back_Bone 0.000000 0.000000 0.000000 0.000000 0.000000 0.000000 10.000000 
Head 0.000000 0.000000 0.000000 0.000000 0.000000 0.000000 10.000000 
Motor_Bone 0.000000 0.000000 0.000000 0.000000 0.000000 0.000000 10.000000 
Ping_Mechanism 0.000000 0.000000 0.000000 0.000000 0.000000 0.000000 10.000000 
BN_LookIK 0.000000 0.000000 0.000000 0.000000 0.000000 0.000000 10.000000 
bottomMouth 0.000000 0.000000 0.000000 0.000000 0.000000 0.000000 10.000000 
L_Mouth01 0.000000 0.000000 0.000000 0.000000 0.000000 0.000000 10.000000 
L_mouthFront 0.000000 0.000000 0.000000 0.000000 0.000000 0.000000 10.000000 
mouthGun 0.000000 0.000000 0.000000 0.000000 0.000000 0.000000 10.000000 
R_Mouth01 0.000000 0.000000 0.000000 0.000000 0.000000 0.000000 10.000000 
R_mouthFront 0.000000 0.000000 0.000000 0.000000 0.000000 0.000000 10.000000 
TopMouth 0.000000 0.000000 0.000000 0.000000 0.000000 0.000000 10.000000 
weapon_bone 0.000000 0.000000 0.000000 0.000000 0.000000 0.000000 10.000000 
#Beginning of Data. Separated by tabs
#Fr	Tx	Ty	Tz	Rx	Ry	Rz	SF
[Pinger_Root]
22 0.000000 0.000000 0.000000 -0.000074 0.000019 29.190712 0.000000
23 0.000000 0.000000 0.000000 -0.000073 0.000021 31.841366 0.000000
24 0.000000 0.000000 0.000000 -0.000072 0.000022 34.479210 0.000000
[Pelvis]
22 645.798706 387.401062 4403.821289 -70.875069 -82.316917 78.822632 4467.749023
23 489.058807 379.040222 4402.941406 -85.264038 -82.244331 94.579308 4446.205566
24 352.059143 363.767151 4394.488770 -102.721695 -81.964493 113.353485 4423.550781
[L_Hip]
22 5.766392 125.831482 872.656799 160.158691 -45.484905 122.312202 881.701050
23 5.766392 125.831482 872.656799 160.158691 -45.484894 122.312202 881.701050
24 5.766392 125.831482 872.656799 160.158691 -45.484894 122.312202 881.701050
[R_Hip]
22 5.765438 125.836372 -872.654907 38.087841 49.812687 125.703735 881.699829
23 5.765438 125.836372 -872.654907 38.087833 49.812687 125.703735 881.699829
24 5.765438 125.836372 -872.654907 38.087837 49.812698 125.703735 881.699829
[Rear_Leg01]
22 -192.298416 -925.602966 -0.001907 171.200378 -22.762138 -142.021164 945.367432
23 -192.298416 -925.602966 -0.001907 162.451721 -16.942904 -138.799057 945.367432
24 -192.298416 -925.602966 -0.001907 156.092255 -8.463813 -138.269180 945.367432
[Spine1]
22 290.604584 5.007505 0.000477 19.980848 -17.371826 15.397190 290.647736
23 290.604584 5.007505 0.000477 19.516750 -14.659997 15.063477 290.647736
24 290.604584 5.007505 0.000477 18.688473 -11.259825 15.181578 290.647736
[L_Leg01]
22 761.932007 -0.002384 -0.069261 25.255072 14.116981 -10.071868 761.932068
23 761.932007 -0.002384 -0.069261 21.874418 14.277012 -10.117954 761.932068
24 761.932007 -0.002384 -0.069261 19.376204 14.864083 -10.271537 761.932068
[L_Leg02]
22 1441.140503 -0.000954 -0.000715 -1.005404 0.556710 -104.559265 1441.140503
23 1441.140503 -0.000954 -0.000715 -1.286198 0.632574 -103.995140 1441.140503
24 1441.140503 -0.000954 -0.000715 -1.398155 0.551568 -104.326393 1441.140503
[L_Leg03]
22 1686.963989 -0.000715 -0.000954 0.072275 -0.014068 90.128090 1686.963989
23 1686.963989 -0.000715 -0.000954 0.061440 -0.012428 93.604179 1686.963989
24 1686.963989 -0.000715 -0.000954 0.036590 -0.010140 99.735382 1686.963989
[L_Foot]
22 3041.570068 -30.715107 11.297464 -30.668369 32.131706 39.065666 3041.746094
23 3041.570068 -30.715107 11.297464 -31.083338 28.795845 41.875431 3041.746094
24 3041.570068 -30.715107 11.297464 -29.494400 24.995619 42.288139 3041.746094
[L_Toe1_01]
22 -188.216690 -224.732346 -21.137953 91.047821 -1.796257 -165.284363 293.899567
23 -188.216690 -224.732346 -21.137953 86.359581 -2.659415 -174.848389 293.899567
24 -188.216690 -224.732346 -21.137953 84.141907 -3.661922 -178.388977 293.899567
[L_Toe2_01]
22 200.746536 -219.926590 148.838394 -89.096230 -16.747717 -58.043823 332.896027
23 200.746536 -219.926590 148.838394 -87.154755 -16.328320 -52.033546 332.896027
24 200.746536 -219.926590 148.838394 -85.973022 -16.740803 -49.182941 332.896027
[L_Toe3_01]
22 188.832520 -219.859131 -191.078659 -103.046700 18.681234 -75.847908 347.140900
23 188.832520 -219.859131 -191.078659 -97.726646 25.575113 -63.876286 347.140900
24 188.832520 -219.859131 -191.078659 -93.737946 28.112391 -56.567692 347.140900
[planeAlignerLeft]
22 51.980587 -712.824524 -24.297028 170.909943 -78.444946 89.122810 715.130127
23 51.998596 -571.689270 -22.378544 170.571060 -83.851555 88.912697 574.485229
24 50.327759 -509.212860 -9.599609 169.342056 -86.300751 89.935905 511.783905
[L_Toe1_02]
22 413.761139 0.000477 0.000000 0.001384 -25.997705 0.001384 413.761139
23 413.761139 0.000477 0.000000 0.001385 -25.804905 0.001385 413.761139
24 413.761139 0.000477 0.000000 0.001387 -25.612097 0.001387 413.761139
[L_Toe1_03]
22 464.317322 0.000358 -0.000089 0.003676 52.762085 0.003676 464.317322
23 464.317322 0.000358 -0.000089 0.004609 60.499344 0.004609 464.317322
24 464.317322 0.000358 -0.000089 0.004795 61.665058 0.004795 464.317322
[L_Toe2_02]
22 342.235809 -0.000477 0.000238 0.001194 -68.778275 0.001194 342.235809
23 342.235809 -0.000477 0.000238 0.001186 -73.620277 0.001186 342.235809
24 342.235809 -0.000477 0.000238 0.001184 -75.072701 0.001184 342.235809
[L_Toe2_03]
22 420.210846 -0.000715 0.000000 0.010316 76.934700 0.010316 420.210846
23 420.210846 -0.000715 0.000000 -0.052298 88.696739 -0.048801 420.210846
24 420.210846 -0.000715 0.000000 -179.980179 86.946297 -179.976669 420.210846
[L_Toe3_02]
22 329.270111 0.000954 0.000000 0.001188 -72.395859 0.001188 329.270111
23 329.270111 0.000954 0.000000 0.001178 -80.473846 0.001178 329.270111
24 329.270111 0.000954 0.000000 0.001176 -82.477753 0.001176 329.270111
[L_Toe3_03]
22 439.137451 -0.001907 0.000954 0.011615 78.401337 0.011615 439.137451
23 439.137451 -0.001907 0.000954 -179.995956 78.618553 -179.992447 439.137451
24 439.137451 -0.001907 0.000954 -179.998566 69.388725 -179.995010 439.137451
[planeLockWeightLeft]
22 1000.000000 0.098250 0.076087 -0.011826 -0.004376 0.005620 1000.000000
23 1000.000000 0.098242 0.076089 -0.011826 -0.004376 0.005620 1000.000000
24 1000.000000 0.098234 0.076090 -0.011826 -0.004376 0.005620 1000.000000
[R_Leg01]
22 761.455627 -0.001907 -0.000358 137.349289 20.177731 38.207195 761.455688
23 761.455627 -0.001907 -0.000358 134.676834 19.762444 38.437504 761.455688
24 761.455627 -0.001907 -0.000358 131.125061 17.654793 39.675186 761.455688
[R_Leg02]
22 1441.140625 0.000000 -0.000238 -1.809762 -0.218609 -118.395782 1441.140625
23 1441.140625 0.000000 -0.000238 -1.504622 -0.011430 -115.926987 1441.140625
24 1441.140625 0.000000 -0.000238 -1.117021 0.135009 -114.437263 1441.140625
[R_Leg03]
22 1686.963989 0.000954 0.001431 0.074134 -0.038300 130.200302 1686.963989
23 1686.963989 0.000954 0.001431 0.049311 -0.026122 124.152962 1686.963989
24 1686.963989 0.000954 0.001431 0.025230 -0.009756 117.428490 1686.963989
[R_Foot]
22 3041.560059 -30.531288 -11.204481 6.592443 -14.504824 65.770805 3041.734131
23 3041.560059 -30.531288 -11.204481 9.501286 -19.147566 66.514908 3041.734131
24 3041.560059 -30.531288 -11.204481 11.799414 -24.926287 67.962952 3041.734131
[planeAlignerRight]
22 59.481659 -498.095154 -334.925964 47.230370 -61.109661 -143.361465 603.168518
23 68.167854 -498.097626 -333.619385 48.898476 -59.976711 -144.813446 603.365540
24 75.167229 -497.888824 -329.102783 50.455109 -58.824314 -146.152786 601.541382
[R_Toe1_01]
22 -188.383347 -224.864899 21.052242 80.272507 36.875145 -172.958038 294.101532
23 -188.383347 -224.864899 21.052242 80.674019 38.449390 -172.509521 294.101532
24 -188.383347 -224.864899 21.052242 81.100586 40.020695 -172.036545 294.101532
[R_Toe2_01]
22 200.637817 -220.002121 -148.787384 -61.387337 6.931860 -42.662064 332.857574
23 200.637817 -220.002121 -148.787384 -60.417786 5.794394 -42.523510 332.857574
24 200.637817 -220.002121 -148.787384 -59.263073 4.304806 -42.393055 332.857574
[R_Toe3_01]
22 188.606735 -220.092957 191.126343 -36.534237 -23.535616 -84.920769 347.192566
23 188.606735 -220.092957 191.126343 -34.867126 -23.762287 -85.792099 347.192566
24 188.606735 -220.092957 191.126343 -32.791401 -24.094229 -86.971817 347.192566
[planeLockWeightRight]
22 999.999695 0.000305 0.076067 -0.011823 -0.004379 -0.000027 999.999695
23 999.999695 0.000305 0.076064 -0.011823 -0.004379 -0.000027 999.999695
24 999.999695 0.000305 0.076061 -0.011823 -0.004379 -0.000027 999.999695
[R_Toe1_02]
22 413.762085 0.000477 -0.000119 0.001388 -25.468266 0.001388 413.762085
23 413.762085 0.000477 -0.000119 0.001388 -25.475637 0.001388 413.762085
24 413.762085 0.000477 -0.000119 0.001388 -25.483009 0.001388 413.762085
[R_Toe1_03]
22 464.317810 0.000000 0.001088 0.005056 63.156902 0.005056 464.317810
23 464.317810 0.000000 0.001088 0.004918 62.387966 0.004918 464.317810
24 464.317810 0.000000 0.001088 0.004787 61.618996 0.004787 464.317810
[R_Toe2_02]
22 342.234741 -0.000954 0.000238 0.001198 -66.949623 0.001198 342.234741
23 342.234741 -0.000954 0.000238 0.001199 -66.611641 0.001199 342.234741
24 342.234741 -0.000954 0.000238 0.001199 -66.273674 0.001199 342.234741
[R_Toe2_03]
22 420.210846 0.000715 -0.000268 0.007987 73.100235 0.007987 420.210846
23 420.210846 0.000715 -0.000268 0.001076 72.429031 0.002845 420.210846
24 420.210846 0.000715 -0.000268 -0.005396 71.757774 -0.001855 420.210846
[R_Toe3_02]
22 329.270355 -0.000477 -0.000954 0.001180 -78.334648 0.001180 329.270355
23 329.270355 -0.000477 -0.000954 0.001180 -78.295662 0.001180 329.270355
24 329.270355 -0.000477 -0.000954 0.001180 -78.256760 0.001180 329.270355
[R_Toe3_03]
22 439.137939 0.000238 0.001431 -179.986816 85.590958 -179.983307 439.137939
23 439.137939 0.000238 0.001431 -179.985260 86.003548 -179.981766 439.137939
24 439.137939 0.000238 0.001431 -179.983368 86.416023 -179.979874 439.137939
[Rear_Leg02]
22 1162.777710 -0.029802 0.005960 12.149070 -16.073303 -103.993088 1162.777710
23 1162.777710 -0.029802 0.005960 18.637787 -14.397099 -110.084175 1162.777710
24 1162.777710 -0.029802 0.005960 21.493050 -9.432349 -117.745605 1162.777710
[Rear_Leg03]
22 607.192505 -0.013351 -0.073195 0.010282 -0.005531 72.914734 607.192505
23 607.192505 -0.013351 -0.073195 0.010083 -0.005872 76.783211 607.192505
24 607.192505 -0.013351 -0.073195 0.009945 -0.006104 79.439117 607.192505
[Rear_Leg04]
22 995.874512 -0.020504 -0.011921 -0.041753 -0.015023 77.783669 995.874573
23 995.874512 -0.020504 -0.011921 -0.042950 -0.017889 88.932526 995.874573
24 995.874512 -0.020504 -0.011921 -0.044408 -0.013880 99.443970 995.874573
[Rear_Foot]
22 3096.176270 -0.067472 -0.041425 -96.960663 69.767784 57.119953 3096.176270
23 3096.176270 -0.067472 -0.041425 -86.024223 67.655159 51.011578 3096.176270
24 3096.176270 -0.067472 -0.041425 -76.580544 68.523247 52.858112 3096.176270
[planeAlignerCenter]
22 -17.420273 -60.856625 -853.351501 20.798632 -13.525317 161.343079 855.696045
23 -56.514359 -130.142838 -838.631836 22.753147 -6.311278 159.397003 850.549438
24 -64.857559 -156.085648 -858.940979 22.425783 -0.495688 159.918411 875.413452
[Rear_Toe1_01]
22 0.653352 83.966492 -371.173737 -16.884775 61.615528 68.803894 380.553192
23 0.653352 83.966492 -371.173737 -41.576626 71.341217 46.748882 380.553192
24 0.653352 83.966492 -371.173737 -86.234283 74.443588 4.442421 380.553192
[Rear_Toe2_01]
22 178.200760 -294.826019 -362.060547 -21.272274 53.542934 -88.166740 499.765686
23 178.200760 -294.826019 -362.060547 -11.054178 55.232742 -84.650070 499.765686
24 178.200760 -294.826019 -362.060547 5.538775 62.170151 -70.788162 499.765686
[Rear_Toe3_01]
22 -153.359680 -308.780914 -362.060852 -3.444752 36.258492 -119.799843 499.952881
23 -153.359680 -308.780914 -362.060852 11.245004 44.235619 -108.263664 499.952881
24 -153.359680 -308.780914 -362.060852 33.827904 53.209812 -85.213013 499.952881
[planeLockWeightCenter]
22 499.999969 0.000153 0.076222 -0.011814 -0.004373 -0.000015 499.999969
23 156.250595 0.000000 0.076256 -0.011814 -0.004373 -0.000015 156.250610
24 -0.000114 0.000000 0.076370 -0.011814 -0.004373 -0.000015 0.076370
[Rear_Toe1_02]
22 379.707825 0.194073 0.000477 -0.000654 -33.036644 -0.000654 379.707855
23 379.707825 0.194073 0.000477 -0.002650 -32.484673 -0.002650 379.707855
24 379.707825 0.194073 0.000477 -0.003481 -33.005661 0.000184 379.707855
[Rear_Toe1_03]
22 500.129700 0.165701 0.000119 -0.016700 86.429543 -0.020199 500.129761
23 500.129700 0.165701 0.000119 -179.973465 87.342216 -179.976959 500.129761
24 500.129700 0.165701 0.000119 -0.029477 87.890488 -0.032974 500.129761
[Rear_Toe2_02]
22 340.494507 0.000238 -0.000954 0.001182 -76.243584 0.001182 340.494507
23 340.494507 0.000238 -0.000954 0.001178 -79.853340 0.001178 340.494507
24 340.494507 0.000238 -0.000954 0.001178 -80.609955 0.001178 340.494507
[Rear_Toe2_03]
22 433.103577 0.000000 0.000238 0.013998 80.381027 0.013998 433.103546
23 433.103577 0.000000 0.000238 0.049967 87.308121 0.049967 433.103546
24 433.103577 0.000000 0.000238 0.116185 88.842079 0.116185 433.103546
[Rear_Toe3_02]
22 340.494141 -0.000358 -0.000477 0.001174 -89.204758 0.001174 340.494171
23 340.494141 -0.000358 -0.000477 0.001174 -87.769096 0.001174 340.494171
24 340.494141 -0.000358 -0.000477 0.001175 -84.847328 0.001175 340.494171
[Rear_Toe3_03]
22 433.103577 0.001431 -0.000238 -179.998596 69.214371 -179.995041 433.103546
23 433.103577 0.001431 -0.000238 -179.997726 73.661499 -179.994186 433.103546
24 433.103577 0.001431 -0.000238 -179.993958 81.544876 -179.990463 433.103546
[Back_Bone]
22 1312.175781 -701.934692 0.000954 0.000023 -0.000007 -85.606667 1488.125488
23 1312.175781 -701.934692 0.000954 0.000023 -0.000007 -85.606667 1488.125488
24 1312.175781 -701.934692 0.000954 0.000023 -0.000007 -85.606667 1488.125488
[Head]
22 1406.159424 809.709290 0.001431 1.105704 -0.894291 7.806918 1622.625488
23 1406.159424 809.709290 0.001431 0.553129 -1.184872 7.786073 1622.625488
24 1406.159424 809.709290 0.001431 0.000625 -1.475623 7.768025 1622.625488
[Motor_Bone]
22 1158.364380 -417.834747 0.000477 -0.080429 7.471712 -105.472939 1231.419434
23 1158.364380 -417.834747 0.000477 -0.082403 7.254611 -105.485916 1231.419434
24 1158.364380 -417.834747 0.000477 -0.076329 7.905912 -105.446899 1231.419434
[Ping_Mechanism]
22 1242.286865 -441.689148 29.734268 0.000103 -0.000053 82.120995 1318.806396
23 1247.585815 -445.831909 22.732250 0.000103 -0.000053 82.120995 1325.048340
24 1251.995605 -449.653290 10.322495 0.000103 -0.000053 82.120995 1330.333618
[BN_LookIK]
22 193.241119 1380.371704 -0.002861 0.000000 89.965736 -31.038179 1393.832153
23 193.241119 1380.371704 -0.002861 0.000000 89.965736 -31.038179 1393.832153
24 193.241119 1380.371704 -0.002861 0.000000 89.965736 -31.038179 1393.832153
[bottomMouth]
22 -435.092926 615.759399 -0.000954 -0.000022 0.000016 73.527184 753.966492
23 -435.092926 615.759399 -0.000954 -0.000022 0.000016 73.527184 753.966492
24 -435.092926 615.759399 -0.000954 -0.000022 0.000016 73.527184 753.966492
[L_Mouth01]
22 554.440979 7.658243 838.222046 150.204178 23.759130 109.605339 1005.027161
23 554.440979 7.658243 838.222046 150.204178 23.759130 109.605339 1005.027161
24 554.440979 7.658243 838.222046 150.204178 23.759130 109.605339 1005.027161
[L_mouthFront]
22 551.629089 934.514771 339.150421 0.000081 2.804060 79.119301 1136.941284
23 551.629089 934.514771 339.150421 0.000081 2.804060 79.119301 1136.941284
24 551.629089 934.514771 339.150421 0.000081 2.804060 79.119301 1136.941284
[mouthGun]
22 55.332661 1627.420898 0.000000 0.000023 0.000009 -11.038128 1628.361328
23 55.332661 1627.420898 0.000000 0.000023 0.000009 -11.038128 1628.361328
24 55.332661 1627.420898 0.000000 0.000023 0.000009 -11.038128 1628.361328
[R_Mouth01]
22 554.442383 7.659197 -838.223938 29.795891 -23.759109 109.605331 1005.029541
23 554.442383 7.659197 -838.223938 29.795891 -23.759109 109.605331 1005.029541
24 554.442383 7.659197 -838.223938 29.795891 -23.759109 109.605331 1005.029541
[R_mouthFront]
22 551.629089 934.514282 -339.151367 0.000029 -2.803930 79.119133 1136.941162
23 551.629089 934.514282 -339.151367 0.000029 -2.803930 79.119133 1136.941162
24 551.629089 934.514282 -339.151367 0.000029 -2.803930 79.119133 1136.941162
[TopMouth]
22 461.269867 -56.106091 -0.008583 -0.000059 -0.000268 92.025169 464.669525
23 461.269867 -56.106091 -0.008583 -0.000059 -0.000268 92.025169 464.669525
24 461.269867 -56.106091 -0.008583 -0.000059 -0.000268 92.025169 464.669525
[weapon_bone]
22 -987.239868 1448.372803 0.001431 0.000000 89.965736 -31.038221 1752.833740
23 -987.239868 1448.372803 0.001431 0.000000 89.965736 -31.038221 1752.833740
24 -987.239868 1448.372803 0.001431 0.000000 89.965736 -31.038221 1752.833740
